<?xml version="1.0" encoding="UTF-8"?>
<svg version="1.1" xmlns="http://www.w3.org/2000/svg" width="225" height="225">
<path d="M0 0 C74.25 0 148.5 0 225 0 C225 74.25 225 148.5 225 225 C150.75 225 76.5 225 0 225 C0 150.75 0 76.5 0 0 Z " fill="#010101" transform="translate(0,0)"/>
<path d="M0 0 C74.25 0 148.5 0 225 0 C225 74.25 225 148.5 225 225 C150.75 225 76.5 225 0 225 C0 150.75 0 76.5 0 0 Z M32.81787109 45.39135742 C14.25579294 66.82149885 7.18878617 94.08792308 8.72949219 121.92822266 C11.03734124 148.13522341 24.23697958 173.68352712 44 191 C66.92797971 210.11633014 95.19831368 218.57311092 125 216 C147.65005409 212.79892169 166.84523087 202.9464629 184 188 C184.62519531 187.45988281 185.25039062 186.91976562 185.89453125 186.36328125 C203.80353672 169.71251972 215.30196501 142.84321108 216.3359375 118.59765625 C216.8347766 88.32842522 207.96098266 63.91017289 188 41 C187.45988281 40.37480469 186.91976562 39.74960937 186.36328125 39.10546875 C169.85736484 21.35225387 143.51788414 10.05797686 119.53710938 8.87890625 C85.30866822 7.64500426 55.80776332 19.93855517 32.81787109 45.39135742 Z " fill="#FDFDFD" transform="translate(0,0)"/>
<path d="M0 0 C1.33359055 0.53398155 1.33359055 0.53398155 2.69412231 1.07875061 C5.51452004 2.21329817 8.32337417 3.37377617 11.1328125 4.53515625 C12.97588084 5.27968447 14.81962803 6.02253448 16.6640625 6.76367188 C26.13609958 10.58689435 35.5541491 14.53992987 44.953125 18.5390625 C45.84401825 18.91643051 46.7349115 19.29379852 47.65280151 19.68260193 C48.47652252 20.03556839 49.30024353 20.38853485 50.14892578 20.75219727 C50.87218048 21.0610939 51.59543518 21.36999054 52.34060669 21.68824768 C54.2578125 22.59765625 54.2578125 22.59765625 57.2578125 24.59765625 C56.24434111 27.79398909 55.20855774 30.69048253 53.6328125 33.66015625 C50.69290588 40.42494137 51.38685206 48.82953213 53.7578125 55.66015625 C54.17546875 56.66755859 54.17546875 56.66755859 54.6015625 57.6953125 C55.2578125 59.59765625 55.2578125 59.59765625 55.2578125 63.59765625 C53.5078125 65.73828125 53.5078125 65.73828125 51.2578125 67.84765625 C50.1440625 68.90726563 50.1440625 68.90726563 49.0078125 69.98828125 C48.4303125 70.519375 47.8528125 71.05046875 47.2578125 71.59765625 C43.12160166 68.21665245 39.44464681 64.93175091 36.2578125 60.59765625 C37.0621875 59.62828125 37.8665625 58.65890625 38.6953125 57.66015625 C41.60339585 53.14072039 41.73991005 48.99856142 41.91796875 43.78125 C41.9721698 42.5992804 41.9721698 42.5992804 42.02746582 41.39343262 C42.11456209 39.46194466 42.18760244 37.52983171 42.2578125 35.59765625 C41.2562915 36.01539307 40.25477051 36.43312988 39.22290039 36.86352539 C35.41902427 38.45001032 31.61493585 40.0359857 27.81079102 41.62182617 C26.18085247 42.30138 24.55096753 42.98106243 22.92114258 43.66088867 C18.95370292 45.3157238 14.98535781 46.96830337 11.01513672 48.61645508 C7.82374034 49.94208619 4.63882882 51.2819442 1.45751953 52.6315918 C-0.06345432 53.27137451 -1.58444951 53.91110647 -3.10546875 54.55078125 C-3.79857651 54.84819717 -4.49168427 55.1456131 -5.20579529 55.45204163 C-19.8757329 61.58913723 -34.50056389 53.50995688 -48.3046875 47.91015625 C-48.95261261 47.64886932 -49.60053772 47.3875824 -50.26809692 47.11837769 C-58.62113613 43.74769562 -66.9437792 40.30923639 -75.1796875 36.66015625 C-75.95836182 36.31960205 -76.73703613 35.97904785 -77.53930664 35.62817383 C-82.39110571 33.43201697 -86.49531898 30.81498088 -90.7421875 27.59765625 C-90.62988281 25.80004883 -90.62988281 25.80004883 -89.7421875 23.59765625 C-87.12792969 21.96362305 -87.12792969 21.96362305 -83.5390625 20.359375 C-82.87968689 20.06407394 -82.22031128 19.76877289 -81.54095459 19.46452332 C-72.1925088 15.36302415 -62.57479017 11.91644681 -52.9921875 8.41015625 C-51.08181647 7.70566025 -49.17165899 7.00058492 -47.26171875 6.29492188 C-43.64351815 4.95831259 -40.02145559 3.63306233 -36.39648438 2.31494141 C-33.69108975 1.32744942 -31.02259596 0.3051537 -28.35351562 -0.77978516 C-18.34887788 -4.81820795 -9.84359209 -4.13544312 0 0 Z " fill="#FCFCFC" transform="translate(128.7421875,61.40234375)"/>
<path d="M0 0 C0.14889585 5.56832301 0.2574727 11.13547468 0.32958984 16.70532227 C0.35966736 18.59778033 0.40054133 20.49010009 0.45263672 22.38208008 C0.52585497 25.11053657 0.55954542 27.83714283 0.5859375 30.56640625 C0.61690521 31.40522842 0.64787292 32.2440506 0.67977905 33.10829163 C0.6829394 38.68928926 -0.5426072 41.54897398 -4.39987183 45.59440613 C-15.22254897 55.10132496 -31.26594748 57.67919252 -45.1328125 57.34765625 C-58.30690259 56.16331886 -71.92397318 52.46914002 -80.70974731 42.02311707 C-82.9013318 38.58671115 -82.74967399 35.41391981 -82.5859375 31.44140625 C-82.57744781 30.65225327 -82.56895813 29.86310028 -82.56021118 29.05003357 C-82.52687457 26.55274384 -82.451646 24.05879751 -82.375 21.5625 C-82.34487428 19.860073 -82.31750305 18.15759489 -82.29296875 16.45507812 C-82.22714991 12.30211574 -82.12377745 8.15162274 -82 4 C-79.26167145 5.08413325 -76.55944965 6.19745016 -73.87109375 7.40234375 C-57.23077058 14.8422152 -39.70773315 18.66148084 -22 12.26953125 C-17.01876852 10.16158824 -4.42991235 0 0 0 Z " fill="#FCFCFC" transform="translate(153,111)"/>
</svg>
